HIERARCHY
ROOT root
{
	OFFSET	0	13.1	24.9
	CHANNELS 6  Xposition Yposition Zposition Xrotation Yrotation Zrotation
	JOINT spine_1
	{
		OFFSET	0	9.99999	0
		CHANNELS 3  Xrotation Yrotation Zrotation
		JOINT spine_2
		{
			OFFSET	0	112	-10
			CHANNELS 3  Xrotation Yrotation Zrotation
			JOINT spine_3
			{
				OFFSET	0	206.5	19.3
				CHANNELS 3  Xrotation Yrotation Zrotation
				JOINT spine_4
				{
					OFFSET	0	110.4	14.6
					CHANNELS 3  Xrotation Yrotation Zrotation
					JOINT neck_1
					{
						OFFSET	0	71.8	-50.3
						CHANNELS 3  Xrotation Yrotation Zrotation
						JOINT neck_2
						{
							OFFSET	0	86.2	-25.8
							CHANNELS 3  Xrotation Yrotation Zrotation
							JOINT head_ee
							{
								OFFSET	0	179.8	-8.7
								CHANNELS 3  Xrotation Yrotation Zrotation
								End Site
								{
									OFFSET	1	0	0
								}
							}
						}
					}
					JOINT left_clavicle
					{
						OFFSET	-43.2	22.4	-70.8
						CHANNELS 3  Xrotation Yrotation Zrotation
						JOINT left_shoulder
						{
							OFFSET	-93.9	-5.79999	48.7
							CHANNELS 3  Xrotation Yrotation Zrotation
							JOINT left_elbow
							{
								OFFSET	-291.4	-30.8	15.2
								CHANNELS 3  Xrotation Yrotation Zrotation
								JOINT left_lowarm_twist
								{
									OFFSET	-110.7	-3.89999	13.6
									CHANNELS 3  Xrotation Yrotation Zrotation
									JOINT left_hand
									{
										OFFSET	-110.7	-3.89999	13.6
										CHANNELS 3  Xrotation Yrotation Zrotation
										JOINT left_ee
										{
											OFFSET	-80.8	-5.10001	12.1
											CHANNELS 3  Xrotation Yrotation Zrotation
											End Site
											{
												OFFSET	1	0	0
											}
										}
									}
								}
							}
						}
					}
					JOINT right_clavicle
					{
						OFFSET	43.2	22.4	-70.8
						CHANNELS 3  Xrotation Yrotation Zrotation
						JOINT right_shoulder
						{
							OFFSET	93.9	-5.79999	48.7
							CHANNELS 3  Xrotation Yrotation Zrotation
							JOINT right_elbow
							{
								OFFSET	291.4	-30.8	15.2
								CHANNELS 3  Xrotation Yrotation Zrotation
								JOINT right_lowarm_twist
								{
									OFFSET	110.7	-3.89999	13.6
									CHANNELS 3  Xrotation Yrotation Zrotation
									JOINT right_hand
									{
										OFFSET	110.7	-3.89999	13.6
										CHANNELS 3  Xrotation Yrotation Zrotation
										JOINT right_ee
										{
											OFFSET	80.8	-5.10001	12.1
											CHANNELS 3  Xrotation Yrotation Zrotation
											End Site
											{
												OFFSET	1	0	0
											}
										}
									}
								}
							}
						}
					}
				}
			}
		}
	}
	JOINT left_hip
	{
		OFFSET	-82.8	-127.5	0.300001
		CHANNELS 3  Xrotation Yrotation Zrotation
		JOINT left_knee
		{
			OFFSET	-28.2	-396.7	2.2
			CHANNELS 3  Xrotation Yrotation Zrotation
			JOINT left_ankle
			{
				OFFSET	-11.7	-411.3	35.4
				CHANNELS 3  Xrotation Yrotation Zrotation
				JOINT left_toes
				{
					OFFSET	0	-60	-88.6
					CHANNELS 3  Xrotation Yrotation Zrotation
					JOINT left_foot_ee
					{
						OFFSET	-22.5	-16.5	-42.2
						CHANNELS 3  Xrotation Yrotation Zrotation
						End Site
						{
							OFFSET	1	0	0
						}
					}
				}
			}
		}
	}
	JOINT right_hip
	{
		OFFSET	82.8	-127.5	0.300001
		CHANNELS 3  Xrotation Yrotation Zrotation
		JOINT right_knee
		{
			OFFSET	28.2	-396.7	2.2
			CHANNELS 3  Xrotation Yrotation Zrotation
			JOINT right_ankle
			{
				OFFSET	11.7	-411.3	35.4
				CHANNELS 3  Xrotation Yrotation Zrotation
				JOINT right_toes
				{
					OFFSET	0	-60	-88.6
					CHANNELS 3  Xrotation Yrotation Zrotation
					JOINT right_foot_ee
					{
						OFFSET	22.5	-16.5	-42.2
						CHANNELS 3  Xrotation Yrotation Zrotation
						End Site
						{
							OFFSET	1	0	0
						}
					}
				}
			}
		}
	}
}
MOTION
Frames: 16
Frame Time: 0.02
2836.8 739.643 -1425.31 1.11791 55.4175 -3.78544 1.7723 0.52439 1.51894 1.77348 0.426685 1.54922 1.7852 0.141571 1.60065 1.78184 0.392556 1.55822 -8.33464 19.4755 4.63382 -8.47719 33.2976 9.04076 -0.0 0.0 -0.0 1.50741 12.7327 4.00266 -6.30112 -28.142 43.9346 1.3147 -33.0731 0.390358 -51.7772 -4.28145 4.77261 -1.91231 25.6317 -0.593594 -0.0 0.0 -0.0 10.6835 27.1059 -20.2738 -12.8122 17.9566 -66.6692 0.290738 8.19574 -0.0208295 -18.4597 1.00237 -2.12677 2.03209 0.339896 -13.5719 0.0 0.0 0.0 -7.04549 0.0363542 11.3689 7.98202 -0.409943 -1.1547 39.4401 25.5428 -5.13153 -29.5943 0.0 0.0 -0.0 0.0 -0.0 27.6167 25.4012 -3.92185 -55.0051 1.68544 -7.95263 26.4569 -20.9805 3.61173 -31.0924 0.0 0.0 0.0 0.0 0.0 
2822.51 739.041 -1428.75 1.53943 55.7292 -4.02544 1.65737 0.428339 1.59222 1.65872 0.326168 1.61625 1.66812 0.0272413 1.64859 1.66444 0.287229 1.62362 -9.88597 18.7575 5.52824 -10.1583 31.6749 10.176 -0.0 0.0 -0.0 1.2099 12.9679 3.52938 -4.87729 -28.1148 41.4107 1.45914 -35.8577 0.472124 -53.2872 -4.4617 4.84369 -2.01421 25.2647 -1.34125 -0.0 0.0 -0.0 10.9534 26.284 -20.9745 -16.0113 16.2503 -66.1549 0.169619 4.80308 -0.00711374 -18.2068 0.984107 -2.10003 1.96251 -1.01128 -13.6312 0.0 0.0 0.0 -8.38272 0.767876 11.083 8.3864 -0.434967 -1.2116 40.3408 23.7954 -5.16238 -29.1927 0.0 0.0 -0.0 0.0 -0.0 27.5002 24.7549 -5.0832 -52.8128 1.47587 -7.68768 27.8045 -22.9028 3.80532 -31.7496 0.0 0.0 0.0 0.0 0.0 
2813.62 742.189 -1428.59 -0.271744 55.0569 -1.88939 1.87315 0.730896 1.50243 1.87419 0.633823 1.54588 1.89152 0.349062 1.63388 1.8883 0.602691 1.55828 -9.00151 19.5309 5.23275 -9.20997 33.1431 9.83675 -0.0 0.0 -0.0 1.21646 14.9367 3.70758 -1.76979 -28.5035 40.4789 1.79421 -41.6268 0.682084 -56.8789 -4.89735 4.99346 -2.72861 28.3191 -3.72191 -0.0 0.0 -0.0 11.1735 26.1644 -21.4849 -18.6535 13.5989 -66.1953 0.108589 3.07917 -0.0029186 -18.964 1.03914 -2.17986 1.29853 -14.2058 -14.0686 0.0 0.0 0.0 -8.59444 1.96639 11.4955 6.99115 -0.350336 -1.01455 41.7888 23.5213 -5.28824 -26.9077 0.0 0.0 -0.0 0.0 -0.0 31.2996 22.0495 -6.99498 -43.611 0.712328 -6.49623 25.9652 -11.6336 3.45524 -35.7647 0.0 0.0 0.0 0.0 0.0 
2804.41 740.422 -1430.93 -1.46559 56.3958 -0.435083 2.12088 0.457631 1.49987 2.12206 0.361275 1.52594 2.1317 0.0908507 1.56548 2.12844 0.33692 1.5315 -8.96805 19.6055 5.52669 -9.16189 33.076 10.1259 -0.0 0.0 -0.0 1.10318 16.2596 3.63978 0.987122 -28.7714 39.4675 2.04565 -45.3747 0.855258 -59.262 -5.19111 5.07761 -3.21336 28.8678 -6.03997 -0.0 0.0 -0.0 11.2866 26.0664 -21.7519 -20.7401 9.97972 -66.4241 0.121968 3.45766 -0.00368129 -19.3382 1.06673 -2.21905 1.07422 -23.7802 -15.8075 0.0 0.0 0.0 -8.17232 3.75927 10.5459 6.31648 -0.311146 -0.918555 42.1087 22.4567 -5.28502 -25.3354 0.0 0.0 -0.0 0.0 -0.0 30.4453 21.5172 -7.22336 -35.2562 0.19287 -5.32286 24.2824 -3.62677 3.25185 -38.68 0.0 0.0 0.0 0.0 0.0 
2791.51 740.942 -1430.47 -1.67579 56.9619 -0.36213 1.98043 0.434438 1.65811 1.9819 0.328063 1.68238 1.99159 0.0267739 1.71385 1.98762 0.29707 1.68813 -9.12005 19.3421 4.91615 -9.35034 33.0277 9.522 -0.0 0.0 -0.0 1.1346 17.1701 3.76558 3.55942 -28.8277 38.634 2.55812 -51.7135 1.23993 -61.1015 -5.42006 5.13415 -3.5664 28.8591 -7.95783 -0.0 0.0 -0.0 11.4644 26.2201 -22.1376 -22.5905 6.81996 -66.7356 0.139617 3.9565 -0.00482242 -19.8952 1.10828 -2.27704 1.2121 -29.81 -18.3429 0.0 0.0 0.0 -7.32982 4.96956 10.5608 2.92042 -0.131233 -0.42885 39.0604 21.9794 -4.98919 -25.3376 0.0 0.0 -0.0 0.0 -0.0 30.4817 21.4392 -8.2323 -25.476 -0.190596 -3.87278 21.0915 4.29914 2.92175 -40.3444 0.0 0.0 0.0 0.0 0.0 
2779.69 740.374 -1428.88 -1.64715 57.9271 -1.03764 1.86097 0.467212 1.81625 1.86274 0.350713 1.84228 1.87414 0.0170839 1.87528 1.86937 0.312984 1.84906 -8.61452 19.2633 4.3639 -8.79704 33.1449 8.81507 -0.0 0.0 -0.0 1.80289 18.296 4.87253 6.70919 -28.3715 38.5851 2.90026 -55.1498 1.51484 -63.0584 -5.66538 5.18617 -3.94047 28.8645 -9.9947 -0.0 0.0 -0.0 11.9327 26.3387 -23.1889 -25.6551 3.81029 -65.5969 0.155398 4.40204 -0.00597257 -20.4012 1.1465 -2.32937 1.30178 -29.7149 -18.8277 0.0 0.0 0.0 -7.35542 5.93911 11.5946 0.495219 -0.0207084 -0.073173 38.8545 21.7024 -4.96228 -24.7023 0.0 0.0 -0.0 0.0 -0.0 30.3592 21.1048 -8.23046 -18.1253 -0.313241 -2.75226 15.5575 9.25329 2.26112 -40.2954 0.0 0.0 0.0 0.0 0.0 
2766.17 739.532 -1428.69 -1.58315 57.9325 -1.62515 1.84233 0.495857 2.04028 1.84457 0.365053 2.06768 1.85791 -0.00953278 2.09962 1.8519 0.32211 2.0748 -9.21408 18.8942 4.05188 -9.47285 32.7859 8.60669 -0.0 0.0 -0.0 1.61954 18.4143 4.60243 8.19584 -28.9536 38.1367 3.0838 -56.7788 1.66695 -64.1528 -5.80326 5.21158 -4.15651 28.8858 -11.1668 -0.0 0.0 -0.0 12.1464 25.7718 -23.7411 -27.577 1.83292 -65.3569 0.162506 4.60254 -0.00653048 -20.8577 1.18138 -2.37629 1.4628 -29.7589 -19.7596 0.0 0.0 0.0 -7.64679 6.07952 12.4407 -1.19698 0.0474322 0.177566 38.7222 22.0577 -4.95873 -24.5178 0.0 0.0 -0.0 0.0 -0.0 30.5716 21.2346 -8.27659 -12.4321 -0.309038 -1.87912 12.5256 13.8337 1.8966 -40.2077 0.0 0.0 0.0 0.0 0.0 
2756.77 743.817 -1425.52 -2.40173 58.7251 -1.06048 1.80968 0.493319 2.07226 1.812 0.360485 2.09944 1.82538 -0.0209044 2.13004 1.81919 0.315683 2.10664 -9.18396 18.5696 3.25341 -9.45301 32.7068 7.74606 -0.0 0.0 -0.0 2.27379 18.9289 5.62029 9.25815 -29.294 37.718 3.40784 -59.3448 1.94201 -65.1934 -5.93479 5.23329 -4.34305 28.8637 -12.2105 -0.0 0.0 -0.0 12.3723 25.4811 -24.2912 -29.1741 0.192388 -65.251 0.16389 4.64158 -0.00664212 -20.5861 1.16058 -2.34841 1.63825 -28.6046 -20.4913 0.0 0.0 0.0 -7.91787 6.97289 13.2101 -1.84387 0.071517 0.27392 37.836 20.284 -4.82989 -24.4131 0.0 0.0 -0.0 0.0 -0.0 30.9425 21.0593 -7.14268 -5.49781 -0.187001 -0.822706 6.64544 15.4628 1.04173 -40.1835 0.0 0.0 0.0 0.0 0.0 
2742.74 742.602 -1425.03 -3.28044 58.5247 -0.53932 1.87987 0.36709 2.20648 1.88255 0.225977 2.22535 1.89138 -0.173308 2.23007 1.88449 0.180976 2.22946 -9.22561 18.3948 2.85753 -9.50501 32.6519 7.33249 -0.0 0.0 -0.0 3.01705 18.7914 6.73549 11.9628 -27.6993 37.3577 3.67378 -61.1959 2.17298 -65.8344 -6.01597 5.24546 -4.42096 28.4352 -12.9314 -0.0 0.0 -0.0 12.4348 25.1274 -24.4735 -30.1805 -0.856952 -64.9634 0.20196 5.7133 -0.0100777 -20.8816 1.18322 -2.37875 1.76106 -28.2336 -21.1243 0.0 0.0 0.0 -8.11676 6.81016 13.8193 -1.2571 0.0497165 0.18651 37.3834 19.9235 -4.77783 -24.8286 0.0 0.0 -0.0 0.0 -0.0 30.4501 20.6955 -7.11646 -0.956245 -0.0381916 -0.141777 3.00599 16.8112 0.482041 -39.6209 0.0 0.0 0.0 0.0 0.0 
2726.21 740.006 -1427.68 -2.62413 59.5021 -1.9751 1.6635 0.22788 2.40596 1.66672 0.0743667 2.41557 1.66998 -0.365717 2.3889 1.66202 0.0160409 2.41666 -9.4081 18.2333 2.54005 -9.71359 32.5932 7.04151 -0.0 0.0 -0.0 3.08209 19.1714 6.84467 12.9072 -28.5685 37.3869 4.08128 -63.6634 2.53428 -66.291 -6.07388 5.25358 -4.59111 28.8612 -13.5896 -0.0 0.0 -0.0 12.2868 24.0393 -24.2471 -31.4752 -1.83856 -64.6725 0.211303 5.97572 -0.011029 -21.0057 1.19278 -2.39146 1.7897 -28.5913 -21.3791 0.0 0.0 0.0 -8.83571 6.58383 14.6218 -3.65352 0.133091 0.544812 37.643 20.8023 -4.82292 -24.5017 0.0 0.0 -0.0 0.0 -0.0 31.0833 20.5229 -7.17055 1.92943 0.0842482 0.284069 2.39699 17.8504 0.388466 -40.2334 0.0 0.0 0.0 0.0 0.0 
2711.23 735.845 -1428.0 -2.18869 59.3411 -2.7567 1.63988 0.173183 2.43927 1.64319 0.0176618 2.44534 1.64405 -0.428032 2.40768 1.63596 -0.0425304 2.44504 -9.51715 18.1736 2.29644 -9.8411 32.6627 6.82621 -0.0 0.0 -0.0 3.24068 19.5891 7.09278 13.6902 -28.9252 37.2418 4.3111 -64.8883 2.74134 -66.7103 -6.1271 5.26062 -4.66769 28.8876 -13.9985 -0.0 0.0 -0.0 12.4512 24.5654 -24.5711 -32.31 -2.32964 -64.8441 0.193458 5.47426 -0.00924884 -21.1388 1.20306 -2.40506 1.82577 -28.722 -21.6229 0.0 0.0 0.0 -10.0682 7.1904 15.6649 -3.9909 0.143621 0.595519 36.5305 20.5659 -4.70755 -24.5718 0.0 0.0 -0.0 0.0 -0.0 31.667 20.1432 -7.28571 4.57161 0.215072 0.668252 1.12565 17.9819 0.183323 -40.253 0.0 0.0 0.0 0.0 0.0 
2697.75 733.545 -1430.37 -2.69569 59.7281 -2.51884 1.5578 0.111965 2.54019 1.56139 -0.0498474 2.54216 1.55932 -0.515814 2.48982 1.55069 -0.116254 2.53999 -9.74058 18.1126 2.20288 -10.0938 32.6471 6.79061 -0.0 0.0 -0.0 3.58713 20.3677 7.62004 15.216 -28.7458 37.5421 4.85124 -67.3832 3.23542 -66.9804 -6.1614 5.26495 -4.74112 28.9014 -14.3994 -0.0 0.0 -0.0 12.3729 23.5991 -24.4888 -32.9546 -2.79014 -64.9308 0.22455 6.3474 -0.0124509 -21.18 1.20624 -2.40926 1.86319 -28.6311 -21.8232 0.0 0.0 0.0 -11.1324 6.98231 15.9646 -2.50529 0.0950146 0.372708 36.7512 20.1654 -4.72078 -24.5528 0.0 0.0 -0.0 0.0 -0.0 32.545 19.8737 -7.4239 6.02024 0.294296 0.876262 -1.87267 18.1013 -0.307774 -40.3658 0.0 0.0 0.0 0.0 0.0 
2682.51 730.576 -1430.56 -2.83595 59.5635 -2.41945 1.59403 0.0753109 2.61363 1.59783 -0.0910962 2.61313 1.59376 -0.567917 2.55234 1.5847 -0.157839 2.60995 -10.3834 17.2539 1.64131 -10.7883 31.4919 6.20625 -0.0 0.0 -0.0 3.79845 20.668 7.93335 16.2475 -27.9062 38.2748 5.60195 -70.1545 3.93539 -67.0286 -6.16753 5.26571 -4.67598 28.5807 -14.2594 -0.0 0.0 -0.0 12.4284 23.3947 -24.6361 -33.2783 -3.14204 -64.9144 0.219344 6.20139 -0.011882 -21.0529 1.19642 -2.39628 2.01654 -28.5036 -22.7076 0.0 0.0 0.0 -13.2743 6.43977 16.8616 0.555506 -0.0232728 -0.0820689 36.6614 19.3507 -4.69484 -24.8374 0.0 0.0 -0.0 0.0 -0.0 33.1329 19.4257 -7.80525 4.96892 0.236275 0.725495 -6.77592 17.968 -1.12433 -40.1893 0.0 0.0 0.0 0.0 0.0 
2664.03 722.596 -1434.25 -2.5897 59.3448 -2.9403 1.52675 0.155847 2.67489 1.53073 -0.0146174 2.67939 1.53026 -0.507718 2.63092 1.52061 -0.0859975 2.67805 -10.4702 17.0624 1.43863 -10.8801 31.2744 5.98278 -0.0 0.0 -0.0 4.05505 21.6394 8.30686 17.3545 -26.7287 38.6257 6.54802 -72.8313 4.83277 -67.1035 -6.17705 5.26687 -4.68613 28.3831 -14.4547 -0.0 0.0 -0.0 12.1659 22.4661 -24.1181 -33.5625 -3.19096 -64.8016 0.305933 8.6178 -0.023051 -20.971 1.1901 -2.3879 2.08858 -28.407 -23.1185 0.0 0.0 0.0 -15.1503 5.12981 17.4419 2.6369 -0.117535 -0.38751 36.6549 17.8612 -4.66581 -25.2095 0.0 0.0 -0.0 0.0 -0.0 34.1888 18.8197 -8.68459 4.41537 0.206843 0.645701 -8.45781 17.3321 -1.39989 -39.6701 0.0 0.0 0.0 0.0 0.0 
2647.13 718.883 -1438.52 -2.65839 59.787 -3.20059 1.47114 0.164254 2.8098 1.47553 -0.014802 2.81456 1.47511 -0.535489 2.76323 1.46447 -0.0925489 2.81308 -10.7848 16.5767 0.389433 -11.2293 31.0804 4.93292 -0.0 0.0 -0.0 3.42433 22.5866 7.41007 17.1897 -26.7814 39.3633 7.46286 -74.8233 5.71154 -66.0426 -6.04236 5.24922 -4.62305 27.343 -14.8205 -0.0 0.0 -0.0 12.0156 21.4977 -23.8556 -34.147 -3.39834 -64.8874 0.379641 10.651 -0.0353889 -20.895 1.18426 -2.38012 2.24274 -29.7146 -24.3181 0.0 0.0 0.0 -17.1382 4.99695 18.4303 4.6045 -0.216812 -0.672996 36.914 17.2713 -4.68079 -25.1161 0.0 0.0 -0.0 0.0 -0.0 34.6092 18.9667 -8.82169 3.42081 0.15591 0.501649 -11.7253 17.6867 -1.95591 -39.69 0.0 0.0 0.0 0.0 0.0 
2628.23 715.559 -1441.9 -2.21691 59.4547 -3.64042 1.49254 0.225709 2.79847 1.4969 0.0472489 2.80715 1.49955 -0.471886 2.76764 1.48886 -0.0290462 2.8074 -9.14784 16.5807 -0.934492 -9.40662 31.7821 3.15497 -0.0 0.0 -0.0 3.11784 23.1911 6.98997 16.4065 -26.3105 39.7242 8.29284 -76.2731 6.51532 -65.0715 -5.91936 5.23087 -4.3733 26.0417 -14.268 -0.0 0.0 -0.0 11.8893 20.7715 -23.6234 -34.4923 -3.48493 -64.812 0.4818 13.4238 -0.0567003 -20.9596 1.18922 -2.38673 2.37952 -29.8585 -25.1682 0.0 0.0 0.0 -18.8259 4.05947 18.7348 6.00552 -0.293465 -0.874159 36.6508 16.3103 -4.63951 -25.8865 0.0 0.0 -0.0 0.0 -0.0 34.5661 18.8561 -9.09258 2.8443 0.127535 0.417758 -13.7622 17.4585 -2.29643 -39.5534 0.0 0.0 0.0 0.0 0.0 
